<svg xmlns="http://www.w3.org/2000/svg" viewBox="0 0 1280 800" width="1280" height="800">
  <!-- Gradient Definitions -->
  <defs>
    <!-- Phase 1: Blue gradients -->
    <linearGradient id="phase1" x1="0%" y1="0%" x2="0%" y2="100%">
      <stop offset="0%" style="stop-color:#3b82f6;stop-opacity:1" />
      <stop offset="100%" style="stop-color:#60a5fa;stop-opacity:1" />
    </linearGradient>
    <linearGradient id="phase1-sub" x1="0%" y1="0%" x2="0%" y2="100%">
      <stop offset="0%" style="stop-color:#60a5fa;stop-opacity:0.7" />
      <stop offset="100%" style="stop-color:#93c5fd;stop-opacity:0.7" />
    </linearGradient>

    <!-- Phase 2: Green gradients -->
    <linearGradient id="phase2" x1="0%" y1="0%" x2="0%" y2="100%">
      <stop offset="0%" style="stop-color:#10b981;stop-opacity:1" />
      <stop offset="100%" style="stop-color:#34d399;stop-opacity:1" />
    </linearGradient>
    <linearGradient id="phase2-sub" x1="0%" y1="0%" x2="0%" y2="100%">
      <stop offset="0%" style="stop-color:#34d399;stop-opacity:0.7" />
      <stop offset="100%" style="stop-color:#6ee7b7;stop-opacity:0.7" />
    </linearGradient>

    <!-- Phase 3: Amber gradients -->
    <linearGradient id="phase3" x1="0%" y1="0%" x2="0%" y2="100%">
      <stop offset="0%" style="stop-color:#f59e0b;stop-opacity:1" />
      <stop offset="100%" style="stop-color:#fbbf24;stop-opacity:1" />
    </linearGradient>
    <linearGradient id="phase3-sub" x1="0%" y1="0%" x2="0%" y2="100%">
      <stop offset="0%" style="stop-color:#fbbf24;stop-opacity:0.7" />
      <stop offset="100%" style="stop-color:#fcd34d;stop-opacity:0.7" />
    </linearGradient>

    <!-- Cross-cutting: Purple gradients -->
    <linearGradient id="cross" x1="0%" y1="0%" x2="0%" y2="100%">
      <stop offset="0%" style="stop-color:#8b5cf6;stop-opacity:1" />
      <stop offset="100%" style="stop-color:#a78bfa;stop-opacity:1" />
    </linearGradient>
  </defs>

  <!-- Background -->
  <rect width="1280" height="800" fill="#0f172a" rx="12"/>

  <!-- Title -->
  <text x="640" y="40" font-family="-apple-system, 'Segoe UI', Arial, sans-serif" font-size="20" font-weight="bold" fill="#f8fafc" text-anchor="middle">
    MAKER Framework - 14-Day Implementation Timeline
  </text>

  <!-- Week Headers -->
  <text x="240" y="80" font-family="-apple-system, 'Segoe UI', Arial, sans-serif" font-size="10" fill="#64748b" text-anchor="middle">W1-D1</text>
  <text x="317" y="80" font-family="-apple-system, 'Segoe UI', Arial, sans-serif" font-size="10" fill="#64748b" text-anchor="middle">D2</text>
  <text x="394" y="80" font-family="-apple-system, 'Segoe UI', Arial, sans-serif" font-size="10" fill="#64748b" text-anchor="middle">D3</text>
  <text x="471" y="80" font-family="-apple-system, 'Segoe UI', Arial, sans-serif" font-size="10" fill="#64748b" text-anchor="middle">D4</text>
  <text x="548" y="80" font-family="-apple-system, 'Segoe UI', Arial, sans-serif" font-size="10" fill="#64748b" text-anchor="middle">D5</text>
  <text x="625" y="80" font-family="-apple-system, 'Segoe UI', Arial, sans-serif" font-size="10" fill="#64748b" text-anchor="middle">W2-D6</text>
  <text x="702" y="80" font-family="-apple-system, 'Segoe UI', Arial, sans-serif" font-size="10" fill="#64748b" text-anchor="middle">D7</text>
  <text x="779" y="80" font-family="-apple-system, 'Segoe UI', Arial, sans-serif" font-size="10" fill="#64748b" text-anchor="middle">D8</text>
  <text x="856" y="80" font-family="-apple-system, 'Segoe UI', Arial, sans-serif" font-size="10" fill="#64748b" text-anchor="middle">D9</text>
  <text x="933" y="80" font-family="-apple-system, 'Segoe UI', Arial, sans-serif" font-size="10" fill="#64748b" text-anchor="middle">D10</text>
  <text x="1010" y="80" font-family="-apple-system, 'Segoe UI', Arial, sans-serif" font-size="10" fill="#64748b" text-anchor="middle">D11</text>
  <text x="1087" y="80" font-family="-apple-system, 'Segoe UI', Arial, sans-serif" font-size="10" fill="#64748b" text-anchor="middle">D12</text>
  <text x="1164" y="80" font-family="-apple-system, 'Segoe UI', Arial, sans-serif" font-size="10" fill="#64748b" text-anchor="middle">D13</text>
  <text x="1241" y="80" font-family="-apple-system, 'Segoe UI', Arial, sans-serif" font-size="10" fill="#64748b" text-anchor="middle">D14</text>

  <!-- Week Grid Lines -->
  <line x1="240" y1="90" x2="240" y2="720" stroke="#334155" stroke-width="1" opacity="0.3"/>
  <line x1="317" y1="90" x2="317" y2="720" stroke="#334155" stroke-width="1" opacity="0.3"/>
  <line x1="394" y1="90" x2="394" y2="720" stroke="#334155" stroke-width="1" opacity="0.3"/>
  <line x1="471" y1="90" x2="471" y2="720" stroke="#334155" stroke-width="1" opacity="0.3"/>
  <line x1="548" y1="90" x2="548" y2="720" stroke="#334155" stroke-width="1" opacity="0.3"/>
  <line x1="625" y1="90" x2="625" y2="720" stroke="#334155" stroke-width="1" opacity="0.3"/>
  <line x1="702" y1="90" x2="702" y2="720" stroke="#334155" stroke-width="1" opacity="0.3"/>
  <line x1="779" y1="90" x2="779" y2="720" stroke="#334155" stroke-width="1" opacity="0.3"/>
  <line x1="856" y1="90" x2="856" y2="720" stroke="#334155" stroke-width="1" opacity="0.3"/>
  <line x1="933" y1="90" x2="933" y2="720" stroke="#334155" stroke-width="1" opacity="0.3"/>
  <line x1="1010" y1="90" x2="1010" y2="720" stroke="#334155" stroke-width="1" opacity="0.3"/>
  <line x1="1087" y1="90" x2="1087" y2="720" stroke="#334155" stroke-width="1" opacity="0.3"/>
  <line x1="1164" y1="90" x2="1164" y2="720" stroke="#334155" stroke-width="1" opacity="0.3"/>

  <!-- Phase Background Bands -->
  <rect x="200" y="90" width="348" height="630" fill="#3b82f6" opacity="0.05" rx="4"/>
  <rect x="548" y="90" width="385" height="630" fill="#10b981" opacity="0.05" rx="4"/>
  <rect x="933" y="90" width="308" height="630" fill="#f59e0b" opacity="0.05" rx="4"/>

  <!-- EPIC-001: Core MAKER Library (Days 1-4) -->
  <text x="190" y="120" font-family="-apple-system, 'Segoe UI', Arial, sans-serif" font-size="11" fill="#94a3b8" text-anchor="end">EPIC-001</text>
  <rect x="200" y="105" width="308" height="24" fill="url(#phase1)" rx="4"/>
  <text x="210" y="122" font-family="-apple-system, 'Segoe UI', Arial, sans-serif" font-size="10" fill="#fff">Core MAKER Library (4d)</text>

  <!-- EPIC-001 Sub-tasks -->
  <rect x="200" y="132" width="77" height="16" fill="url(#phase1-sub)" rx="3"/>
  <text x="205" y="143" font-family="-apple-system, 'Segoe UI', Arial, sans-serif" font-size="9" fill="#cbd5e1">k_min calc</text>

  <rect x="280" y="132" width="154" height="16" fill="url(#phase1-sub)" rx="3"/>
  <text x="285" y="143" font-family="-apple-system, 'Segoe UI', Arial, sans-serif" font-size="9" fill="#cbd5e1">Vote race tracking</text>

  <rect x="437" y="132" width="154" height="16" fill="url(#phase1-sub)" rx="3"/>
  <text x="442" y="143" font-family="-apple-system, 'Segoe UI', Arial, sans-serif" font-size="9" fill="#cbd5e1">Red-flagging parsers</text>

  <!-- EPIC-004: Event-Driven Observability (Days 3-5) -->
  <text x="190" y="180" font-family="-apple-system, 'Segoe UI', Arial, sans-serif" font-size="11" fill="#94a3b8" text-anchor="end">EPIC-004</text>
  <rect x="354" y="165" width="231" height="24" fill="url(#phase1)" rx="4"/>
  <text x="364" y="182" font-family="-apple-system, 'Segoe UI', Arial, sans-serif" font-size="10" fill="#fff">Event Observability (3d)</text>

  <!-- EPIC-004 Sub-tasks -->
  <rect x="354" y="192" width="77" height="16" fill="url(#phase1-sub)" rx="3"/>
  <text x="359" y="203" font-family="-apple-system, 'Segoe UI', Arial, sans-serif" font-size="9" fill="#cbd5e1">Events</text>

  <rect x="434" y="192" width="77" height="16" fill="url(#phase1-sub)" rx="3"/>
  <text x="439" y="203" font-family="-apple-system, 'Segoe UI', Arial, sans-serif" font-size="9" fill="#cbd5e1">EventBus</text>

  <rect x="514" y="192" width="71" height="16" fill="url(#phase1-sub)" rx="3"/>
  <text x="519" y="203" font-family="-apple-system, 'Segoe UI', Arial, sans-serif" font-size="9" fill="#cbd5e1">Observers</text>

  <!-- EPIC-005: Testing Infrastructure (Days 1-14) -->
  <text x="190" y="240" font-family="-apple-system, 'Segoe UI', Arial, sans-serif" font-size="11" fill="#94a3b8" text-anchor="end">EPIC-005</text>
  <rect x="200" y="225" width="1041" height="24" fill="url(#cross)" rx="4"/>
  <text x="210" y="242" font-family="-apple-system, 'Segoe UI', Arial, sans-serif" font-size="10" fill="#fff">Testing Infrastructure (14d - Cross-cutting)</text>

  <!-- Milestone M1 -->
  <polygon points="508,260 518,272 508,284 498,272" fill="#3b82f6"/>
  <text x="525" y="274" font-family="-apple-system, 'Segoe UI', Arial, sans-serif" font-size="9" fill="#3b82f6">M1: Core Complete</text>

  <!-- EPIC-002: LLM Provider Abstraction (Days 6-9) -->
  <text x="190" y="320" font-family="-apple-system, 'Segoe UI', Arial, sans-serif" font-size="11" fill="#94a3b8" text-anchor="end">EPIC-002</text>
  <rect x="585" y="305" width="308" height="24" fill="url(#phase2)" rx="4"/>
  <text x="595" y="322" font-family="-apple-system, 'Segoe UI', Arial, sans-serif" font-size="10" fill="#fff">LLM Provider Abstraction (4d)</text>

  <!-- EPIC-002 Sub-tasks -->
  <rect x="585" y="332" width="77" height="16" fill="url(#phase2-sub)" rx="3"/>
  <text x="590" y="343" font-family="-apple-system, 'Segoe UI', Arial, sans-serif" font-size="9" fill="#cbd5e1">LLM trait</text>

  <rect x="665" y="332" width="150" height="16" fill="url(#phase2-sub)" rx="3"/>
  <text x="670" y="343" font-family="-apple-system, 'Segoe UI', Arial, sans-serif" font-size="9" fill="#cbd5e1">Provider clients</text>

  <rect x="818" y="332" width="75" height="16" fill="url(#phase2-sub)" rx="3"/>
  <text x="823" y="343" font-family="-apple-system, 'Segoe UI', Arial, sans-serif" font-size="9" fill="#cbd5e1">Parallel</text>

  <!-- EPIC-003: MCP Server Implementation (Days 8-10) -->
  <text x="190" y="380" font-family="-apple-system, 'Segoe UI', Arial, sans-serif" font-size="11" fill="#94a3b8" text-anchor="end">EPIC-003</text>
  <rect x="739" y="365" width="231" height="24" fill="url(#phase2)" rx="4"/>
  <text x="749" y="382" font-family="-apple-system, 'Segoe UI', Arial, sans-serif" font-size="10" fill="#fff">MCP Server (3d)</text>

  <!-- EPIC-003 Sub-tasks -->
  <rect x="739" y="392" width="77" height="16" fill="url(#phase2-sub)" rx="3"/>
  <text x="744" y="403" font-family="-apple-system, 'Segoe UI', Arial, sans-serif" font-size="9" fill="#cbd5e1">rmcp setup</text>

  <rect x="819" y="392" width="75" height="16" fill="url(#phase2-sub)" rx="3"/>
  <text x="824" y="403" font-family="-apple-system, 'Segoe UI', Arial, sans-serif" font-size="9" fill="#cbd5e1">MCP tools</text>

  <rect x="897" y="392" width="73" height="16" fill="url(#phase2-sub)" rx="3"/>
  <text x="902" y="403" font-family="-apple-system, 'Segoe UI', Arial, sans-serif" font-size="9" fill="#cbd5e1">Validation</text>

  <!-- EPIC-008: Security &amp; Guardrails (Days 9-10) -->
  <text x="190" y="440" font-family="-apple-system, 'Segoe UI', Arial, sans-serif" font-size="11" fill="#94a3b8" text-anchor="end">EPIC-008</text>
  <rect x="816" y="425" width="154" height="24" fill="url(#phase2)" rx="4"/>
  <text x="826" y="442" font-family="-apple-system, 'Segoe UI', Arial, sans-serif" font-size="10" fill="#fff">Security (2d)</text>

  <!-- EPIC-008 Sub-tasks -->
  <rect x="816" y="452" width="77" height="16" fill="url(#phase2-sub)" rx="3"/>
  <text x="821" y="463" font-family="-apple-system, 'Segoe UI', Arial, sans-serif" font-size="9" fill="#cbd5e1">Schema</text>

  <rect x="896" y="452" width="74" height="16" fill="url(#phase2-sub)" rx="3"/>
  <text x="901" y="463" font-family="-apple-system, 'Segoe UI', Arial, sans-serif" font-size="9" fill="#cbd5e1">Injection</text>

  <!-- Milestone M2 -->
  <polygon points="893,480 903,492 893,504 883,492" fill="#10b981"/>
  <text x="910" y="494" font-family="-apple-system, 'Segoe UI', Arial, sans-serif" font-size="9" fill="#10b981">M2: MCP Operational</text>

  <!-- EPIC-006: Demo &amp; Benchmarks (Days 11-13) -->
  <text x="190" y="540" font-family="-apple-system, 'Segoe UI', Arial, sans-serif" font-size="11" fill="#94a3b8" text-anchor="end">EPIC-006</text>
  <rect x="970" y="525" width="231" height="24" fill="url(#phase3)" rx="4"/>
  <text x="980" y="542" font-family="-apple-system, 'Segoe UI', Arial, sans-serif" font-size="10" fill="#fff">Demo &amp; Benchmarks (3d)</text>

  <!-- EPIC-006 Sub-tasks -->
  <rect x="970" y="552" width="77" height="16" fill="url(#phase3-sub)" rx="3"/>
  <text x="975" y="563" font-family="-apple-system, 'Segoe UI', Arial, sans-serif" font-size="9" fill="#cbd5e1">Hanoi task</text>

  <rect x="1050" y="552" width="77" height="16" fill="url(#phase3-sub)" rx="3"/>
  <text x="1055" y="563" font-family="-apple-system, 'Segoe UI', Arial, sans-serif" font-size="9" fill="#cbd5e1">10-disk run</text>

  <rect x="1130" y="552" width="71" height="16" fill="url(#phase3-sub)" rx="3"/>
  <text x="1135" y="563" font-family="-apple-system, 'Segoe UI', Arial, sans-serif" font-size="9" fill="#cbd5e1">Benchmarks</text>

  <!-- Milestone M3 -->
  <polygon points="1087,580 1097,592 1087,604 1077,592" fill="#f59e0b"/>
  <text x="1104" y="594" font-family="-apple-system, 'Segoe UI', Arial, sans-serif" font-size="9" fill="#f59e0b">M3: Demo Complete</text>

  <!-- EPIC-007: Documentation (Days 13-14) -->
  <text x="190" y="640" font-family="-apple-system, 'Segoe UI', Arial, sans-serif" font-size="11" fill="#94a3b8" text-anchor="end">EPIC-007</text>
  <rect x="1124" y="625" width="154" height="24" fill="url(#phase3)" rx="4"/>
  <text x="1134" y="642" font-family="-apple-system, 'Segoe UI', Arial, sans-serif" font-size="10" fill="#fff">Documentation (2d)</text>

  <!-- EPIC-007 Sub-tasks -->
  <rect x="1124" y="652" width="77" height="16" fill="url(#phase3-sub)" rx="3"/>
  <text x="1129" y="663" font-family="-apple-system, 'Segoe UI', Arial, sans-serif" font-size="9" fill="#cbd5e1">README</text>

  <rect x="1204" y="652" width="74" height="16" fill="url(#phase3-sub)" rx="3"/>
  <text x="1209" y="663" font-family="-apple-system, 'Segoe UI', Arial, sans-serif" font-size="9" fill="#cbd5e1">API docs</text>

  <!-- Milestone M4 -->
  <polygon points="1241,680 1251,692 1241,704 1231,692" fill="#10b981"/>
  <text x="1165" y="694" font-family="-apple-system, 'Segoe UI', Arial, sans-serif" font-size="9" fill="#10b981">M4: v0.1.0 Release</text>

  <!-- Dependency Arrows -->
  <!-- EPIC-001 to EPIC-002 -->
  <path d="M 508 117 L 585 317" stroke="#ef4444" stroke-width="2" fill="none" marker-end="url(#arrowred)" opacity="0.6"/>

  <!-- EPIC-002 to EPIC-003 -->
  <path d="M 739 317 L 739 377" stroke="#ef4444" stroke-width="2" fill="none" marker-end="url(#arrowred)" opacity="0.6"/>

  <!-- EPIC-003 to EPIC-006 -->
  <path d="M 893 377 L 1010 537" stroke="#ef4444" stroke-width="2" fill="none" marker-end="url(#arrowred)" opacity="0.6"/>

  <!-- EPIC-006 to EPIC-007 -->
  <path d="M 1124 537 L 1164 637" stroke="#ef4444" stroke-width="2" fill="none" marker-end="url(#arrowred)" opacity="0.6"/>

  <!-- Arrow marker definitions -->
  <defs>
    <marker id="arrowred" markerWidth="10" markerHeight="10" refX="9" refY="3" orient="auto" markerUnits="strokeWidth">
      <path d="M0,0 L0,6 L9,3 z" fill="#ef4444" />
    </marker>
  </defs>

  <!-- Legend -->
  <rect x="50" y="740" width="1180" height="50" fill="#1e293b" rx="6"/>

  <rect x="70" y="755" width="20" height="20" fill="url(#phase1)" rx="2"/>
  <text x="95" y="769" font-family="-apple-system, 'Segoe UI', Arial, sans-serif" font-size="10" fill="#cbd5e1">Phase 1: Core Algorithms</text>

  <rect x="290" y="755" width="20" height="20" fill="url(#phase2)" rx="2"/>
  <text x="315" y="769" font-family="-apple-system, 'Segoe UI', Arial, sans-serif" font-size="10" fill="#cbd5e1">Phase 2: MCP Integration</text>

  <rect x="520" y="755" width="20" height="20" fill="url(#phase3)" rx="2"/>
  <text x="545" y="769" font-family="-apple-system, 'Segoe UI', Arial, sans-serif" font-size="10" fill="#cbd5e1">Phase 3: Validation</text>

  <rect x="740" y="755" width="20" height="20" fill="url(#cross)" rx="2"/>
  <text x="765" y="769" font-family="-apple-system, 'Segoe UI', Arial, sans-serif" font-size="10" fill="#cbd5e1">Cross-cutting (Testing)</text>

  <polygon points="970,765 980,757 970,749 960,757" fill="#3b82f6"/>
  <text x="985" y="769" font-family="-apple-system, 'Segoe UI', Arial, sans-serif" font-size="10" fill="#cbd5e1">Milestone</text>

  <path d="M 1100 760 L 1130 765" stroke="#ef4444" stroke-width="2" fill="none" marker-end="url(#arrowred)"/>
  <text x="1135" y="769" font-family="-apple-system, 'Segoe UI', Arial, sans-serif" font-size="10" fill="#cbd5e1">Critical Path</text>
</svg>
