<svg xmlns="http://www.w3.org/2000/svg" viewBox="0 0 900 500" width="900" height="500">
  <rect width="900" height="500" rx="8" fill="#f8fafc"/>
  <text x="450" y="35" font-family="sans-serif" font-size="20" font-weight="bold" fill="#0f172a" text-anchor="middle">Accuracy Comparison: Voting vs Single Sample</text>

  <!-- Y-axis labels and grid -->
  <text x="45" y="424" font-family="sans-serif" font-size="11" fill="#64748b" text-anchor="end">0%</text>
  <line x1="50" y1="420" x2="850" y2="420" stroke="#e2e8f0" stroke-dasharray="2,2"/>
  <text x="45" y="344" font-family="sans-serif" font-size="11" fill="#64748b" text-anchor="end">25%</text>
  <line x1="50" y1="340" x2="850" y2="340" stroke="#e2e8f0" stroke-dasharray="2,2"/>
  <text x="45" y="264" font-family="sans-serif" font-size="11" fill="#64748b" text-anchor="end">50%</text>
  <line x1="50" y1="260" x2="850" y2="260" stroke="#e2e8f0" stroke-dasharray="2,2"/>
  <text x="45" y="184" font-family="sans-serif" font-size="11" fill="#64748b" text-anchor="end">75%</text>
  <line x1="50" y1="180" x2="850" y2="180" stroke="#e2e8f0" stroke-dasharray="2,2"/>
  <text x="45" y="104" font-family="sans-serif" font-size="11" fill="#64748b" text-anchor="end">100%</text>
  <line x1="50" y1="100" x2="850" y2="100" stroke="#e2e8f0" stroke-dasharray="2,2"/>

  <!-- Legend -->
  <rect x="750" y="55" width="18" height="18" fill="#3b82f6" rx="3"/>
  <text x="775" y="69" font-family="sans-serif" font-size="13" fill="#1e293b">Voting</text>
  <rect x="750" y="80" width="18" height="18" fill="#94a3b8" rx="3"/>
  <text x="775" y="94" font-family="sans-serif" font-size="13" fill="#1e293b">Single</text>

  <!-- Ensemble k=1: 58.3% voting, 20.8% single -->
  <rect x="70" y="233" width="35" height="187" fill="#3b82f6" rx="3"/>
  <rect x="110" y="353" width="35" height="67" fill="#94a3b8" rx="3"/>
  <text x="107" y="450" font-family="sans-serif" font-size="10" fill="#64748b" text-anchor="middle">ensemble_k1</text>
  <text x="87" y="225" font-family="sans-serif" font-size="9" fill="#3b82f6" text-anchor="middle">58.3%</text>
  <text x="107" y="470" font-family="sans-serif" font-size="9" fill="#22c55e" text-anchor="middle">***</text>

  <!-- Ensemble k=2: 62.5% voting, 20.8% single -->
  <rect x="160" y="220" width="35" height="200" fill="#3b82f6" rx="3"/>
  <rect x="200" y="353" width="35" height="67" fill="#94a3b8" rx="3"/>
  <text x="197" y="450" font-family="sans-serif" font-size="10" fill="#64748b" text-anchor="middle">ensemble_k2</text>
  <text x="177" y="212" font-family="sans-serif" font-size="9" fill="#3b82f6" text-anchor="middle">62.5%</text>
  <text x="197" y="470" font-family="sans-serif" font-size="9" fill="#22c55e" text-anchor="middle">**</text>

  <!-- Ensemble k=3: 54.2% voting, 20.8% single -->
  <rect x="250" y="246" width="35" height="174" fill="#3b82f6" rx="3"/>
  <rect x="290" y="353" width="35" height="67" fill="#94a3b8" rx="3"/>
  <text x="287" y="450" font-family="sans-serif" font-size="10" fill="#64748b" text-anchor="middle">ensemble_k3</text>
  <text x="267" y="238" font-family="sans-serif" font-size="9" fill="#3b82f6" text-anchor="middle">54.2%</text>
  <text x="287" y="470" font-family="sans-serif" font-size="9" fill="#22c55e" text-anchor="middle">*</text>

  <!-- Ollama k=1: 25% voting, 20.8% single -->
  <rect x="360" y="340" width="35" height="80" fill="#3b82f6" rx="3"/>
  <rect x="400" y="353" width="35" height="67" fill="#94a3b8" rx="3"/>
  <text x="397" y="450" font-family="sans-serif" font-size="10" fill="#64748b" text-anchor="middle">ollama_k1</text>
  <text x="377" y="332" font-family="sans-serif" font-size="9" fill="#3b82f6" text-anchor="middle">25%</text>

  <!-- Ollama k=2: 25% voting, 20.8% single -->
  <rect x="450" y="340" width="35" height="80" fill="#3b82f6" rx="3"/>
  <rect x="490" y="353" width="35" height="67" fill="#94a3b8" rx="3"/>
  <text x="487" y="450" font-family="sans-serif" font-size="10" fill="#64748b" text-anchor="middle">ollama_k2</text>
  <text x="467" y="332" font-family="sans-serif" font-size="9" fill="#3b82f6" text-anchor="middle">25%</text>

  <!-- Ollama k=3: 25% voting, 20.8% single -->
  <rect x="540" y="340" width="35" height="80" fill="#3b82f6" rx="3"/>
  <rect x="580" y="353" width="35" height="67" fill="#94a3b8" rx="3"/>
  <text x="577" y="450" font-family="sans-serif" font-size="10" fill="#64748b" text-anchor="middle">ollama_k3</text>
  <text x="557" y="332" font-family="sans-serif" font-size="9" fill="#3b82f6" text-anchor="middle">25%</text>

  <!-- OpenAI k=1: 100% voting, 100% single -->
  <rect x="650" y="100" width="35" height="320" fill="#3b82f6" rx="3"/>
  <rect x="690" y="100" width="35" height="320" fill="#94a3b8" rx="3"/>
  <text x="687" y="450" font-family="sans-serif" font-size="10" fill="#64748b" text-anchor="middle">openai_k1</text>
  <text x="667" y="92" font-family="sans-serif" font-size="9" fill="#3b82f6" text-anchor="middle">100%</text>

  <!-- OpenAI k=2: 100% voting, 100% single -->
  <rect x="740" y="100" width="35" height="320" fill="#3b82f6" rx="3"/>
  <rect x="780" y="100" width="35" height="320" fill="#94a3b8" rx="3"/>
  <text x="777" y="450" font-family="sans-serif" font-size="10" fill="#64748b" text-anchor="middle">openai_k2</text>
  <text x="757" y="92" font-family="sans-serif" font-size="9" fill="#3b82f6" text-anchor="middle">100%</text>
</svg>
