<svg xmlns="http://www.w3.org/2000/svg" viewBox="0 0 700 400" width="700" height="400">
  <rect width="700" height="400" rx="8" fill="#f8fafc"/>
  <text x="350" y="30" font-family="sans-serif" font-size="18" font-weight="bold" fill="#0f172a" text-anchor="middle">k-margin vs Theoretical Reliability</text>
  <path d="M 60 340 L 124 340 L 188 340 L 253 250 L 317 138 L 382 108 L 446 102 L 511 101 L 575 101 L 640 101" stroke="#10b981" stroke-width="3" fill="none"/>
  <circle cx="60" cy="340" r="5" fill="#10b981"/>
  <text x="60" y="380" font-family="sans-serif" font-size="10" fill="#1e293b" text-anchor="middle">1</text>
  <circle cx="124" cy="340" r="5" fill="#10b981"/>
  <text x="124" y="380" font-family="sans-serif" font-size="10" fill="#1e293b" text-anchor="middle">2</text>
  <circle cx="188" cy="340" r="5" fill="#10b981"/>
  <text x="188" y="380" font-family="sans-serif" font-size="10" fill="#1e293b" text-anchor="middle">3</text>
  <circle cx="253" cy="250" r="5" fill="#10b981"/>
  <text x="253" y="380" font-family="sans-serif" font-size="10" fill="#1e293b" text-anchor="middle">4</text>
  <circle cx="317" cy="138" r="5" fill="#10b981"/>
  <text x="317" y="380" font-family="sans-serif" font-size="10" fill="#1e293b" text-anchor="middle">5</text>
  <circle cx="382" cy="108" r="5" fill="#10b981"/>
  <text x="382" y="380" font-family="sans-serif" font-size="10" fill="#1e293b" text-anchor="middle">6</text>
  <circle cx="446" cy="102" r="5" fill="#10b981"/>
  <text x="446" y="380" font-family="sans-serif" font-size="10" fill="#1e293b" text-anchor="middle">7</text>
  <circle cx="511" cy="101" r="5" fill="#10b981"/>
  <text x="511" y="380" font-family="sans-serif" font-size="10" fill="#1e293b" text-anchor="middle">8</text>
  <circle cx="575" cy="101" r="5" fill="#10b981"/>
  <text x="575" y="380" font-family="sans-serif" font-size="10" fill="#1e293b" text-anchor="middle">9</text>
  <circle cx="640" cy="101" r="5" fill="#10b981"/>
  <text x="640" y="380" font-family="sans-serif" font-size="10" fill="#1e293b" text-anchor="middle">10</text>
  <line x1="60" y1="112" x2="640" y2="112" stroke="#ef4444" stroke-dasharray="5,5"/>
  <text x="645" y="116" font-family="sans-serif" font-size="10" fill="#ef4444">95% target</text>
  <text x="350" y="395" font-family="sans-serif" font-size="12" fill="#64748b" text-anchor="middle">k-margin</text>
  <text x="60" y="55" font-family="sans-serif" font-size="10" fill="#64748b">p=0.85, s=1000</text>
</svg>
